<?xml version="1.0" encoding="utf-8"?>
<!-- Generator: Adobe Illustrator 23.0.1, SVG Export Plug-In . SVG Version: 6.00 Build 0)  -->
<svg version="1.1" id="Layer_1" xmlns="http://www.w3.org/2000/svg" xmlns:xlink="http://www.w3.org/1999/xlink" x="0px" y="0px"
	 viewBox="0 0 305 305" style="enable-background:new 0 0 305 305;" xml:space="preserve">
<style type="text/css">
	.st0{fill:url(#SVGID_1_);}
	.st1{fill:none;}
	.st2{fill:#FFFFFF;}
	.st3{fill:#FFFFFF;stroke:#FFFFFF;stroke-width:2;stroke-miterlimit:10;}
	.st4{font-family:'LetsgoDigital-Regular';}
	.st5{font-size:68.3276px;}
</style>
<g id="Background">
	
		<linearGradient id="SVGID_1_" gradientUnits="userSpaceOnUse" x1="152.5" y1="-693" x2="152.5" y2="-388" gradientTransform="matrix(1 0 0 -1 0 -388)">
		<stop  offset="0" style="stop-color:#020094"/>
		<stop  offset="1" style="stop-color:#2A3EFF"/>
	</linearGradient>
	<rect class="st0" width="305" height="305"/>
</g>
<g id="Logo">
	<path id="Moon_Fill_1_" class="st1" d="M190.7,199.5L214,164c0,0,7.2,5.4,11.8,5.4c5,0,11.4-5.4,11.4-5.4l31.3,48.5
		c9.2-17.9,14.1-37.5,14.1-58.9c0-72.1-58.4-130.4-130.3-130.4S22.3,81.2,22.3,153.2c0,54.7,33.9,101.4,81.7,120.6l68.2-106.6
		L190.7,199.5z"/>
	<path id="MoonAndMountains" class="st2" d="M284,153.6c0-72.7-59.1-131.7-131.6-131.7c-35.2,0-68.2,13.6-93,38.4
		C34.7,85,21,118,21,153.2c0,26.7,8,52.5,23.2,74.3c14.7,21.3,35.3,37.8,59.3,47.5l1,0.4l15.3-23.8c17.7-26.4,45.6-66.7,52-69
		c3.3-0.2,6.9,7.3,16.6,20.4l-52.6,80.1h0.1c12.8-18.6,71.5-103.2,80.1-109.6c3.5,1.4,6.8,2.8,9.8,2.8c2.9,0,5.2-1.1,9.4-2.8
		c5.9,4.9,19.7,20.5,33.5,42.1c2.1-3.9,3.9-8.1,5.5-12.3C280.7,187.7,284,170.9,284,153.6z M237.6,162l-1.1,1c-0.1,0.1-6.2,5-10.6,5
		c-3.4,0-9.1-3.7-11-5.1l-1.1-0.9l-22.9,34.9l-18.5-32.3l-68.9,107.5c-23.2-9.5-42.9-25.5-57.1-46.1c-14.8-21.5-22.7-46.7-22.7-72.8
		c0-34.5,13.4-66.9,37.6-91.1s56.6-37.6,91.1-37.6c71.1,0,129,57.9,129,129.1c0,19.9-4.3,38.8-13,56.3L237.6,162z"/>
	<g id="Lights">
		<circle class="st3" cx="102.6" cy="146.6" r="13"/>
		<circle class="st3" cx="152.5" cy="144.9" r="13"/>
		<circle class="st3" cx="202.3" cy="144.9" r="13"/>
	</g>
	<text transform="matrix(1 0 0 1 40.1632 128.7079)" class="st2 st4 st5">01:23:45</text>
</g>
</svg>
