<?xml version="1.0" encoding="utf-8"?>
<!-- Generator: Adobe Illustrator 23.0.1, SVG Export Plug-In . SVG Version: 6.00 Build 0)  -->
<svg version="1.1" id="Layer_1" xmlns="http://www.w3.org/2000/svg" xmlns:xlink="http://www.w3.org/1999/xlink" x="0px" y="0px"
	 viewBox="0 0 305 305" style="enable-background:new 0 0 305 305;" xml:space="preserve">
<style type="text/css">
	.st0{fill:url(#SVGID_1_);}
	.st1{fill:url(#Moon_Fill_2_);}
	.st2{fill:#00DC00;stroke:#000000;stroke-width:2;stroke-miterlimit:10;}
	.st3{fill:#FFFF00;stroke:#000000;stroke-width:2;stroke-miterlimit:10;}
	.st4{fill:#DF0000;stroke:#000000;stroke-width:2;stroke-miterlimit:10;}
	.st5{fill:#DF0000;stroke:#DF0000;stroke-miterlimit:10;}
	.st6{font-family:'LetsgoDigital-Regular';}
	.st7{font-size:78.7976px;}
</style>
<g id="Background">
	
		<linearGradient id="SVGID_1_" gradientUnits="userSpaceOnUse" x1="152.5" y1="999" x2="152.5" y2="694" gradientTransform="matrix(1 0 0 1 0 -694)">
		<stop  offset="0" style="stop-color:#020094"/>
		<stop  offset="1" style="stop-color:#2A3EFF"/>
	</linearGradient>
	<rect class="st0" width="305" height="305"/>
</g>
<g id="Logo">
	
		<linearGradient id="Moon_Fill_2_" gradientUnits="userSpaceOnUse" x1="152.55" y1="985.7" x2="152.55" y2="696.6" gradientTransform="matrix(1 0 0 1 0 -694)">
		<stop  offset="0" style="stop-color:#FFF994"/>
		<stop  offset="1" style="stop-color:#F5FFAA"/>
	</linearGradient>
	<path id="Moon_Fill_1_" class="st1" d="M196.6,206l26.9-41c0,0,8.3,6.2,13.6,6.2c5.8,0,13.2-6.2,13.2-6.2l36.1,55.9
		c10.6-20.6,16.3-43.2,16.3-67.9c0-83.1-67.3-150.4-150.3-150.4s-150,66.9-150,150c0,63.1,39.1,116.9,94.2,139.1l78.7-122.9
		L196.6,206z"/>
	<path id="MoonAndMountains" d="M304.2,153c0-83.8-68.1-151.9-151.8-151.9c-40.6,0-78.6,15.7-107.2,44.3
		C16.7,73.9,0.9,112,0.9,152.6c0,30.8,9.2,60.5,26.7,85.7c17,24.6,40.7,43.6,68.4,54.8l1.2,0.5l17.6-27.5
		c20.4-30.5,52.6-76.9,60-79.6c3.8-0.2,8,8.4,19.1,23.5l-60.7,92.4h0.1c14.8-21.5,82.5-119,92.4-126.4c4,1.6,7.8,3.2,11.3,3.2
		c3.3,0,6-1.3,10.8-3.2c6.8,5.7,22.7,23.6,38.6,48.5c2.4-4.5,4.5-9.3,6.4-14.2C300.4,192.3,304.2,173,304.2,153z M250.7,162.7
		l-1.3,1.1c-0.1,0.1-7.1,5.8-12.2,5.8c-3.9,0-10.5-4.3-12.7-5.9l-1.3-1L196.8,203l-21.3-37.2L96,289.8c-26.7-11-49.5-29.4-65.9-53.2
		c-17.1-24.8-26.2-53.8-26.2-84c0-39.8,15.4-77.1,43.4-105.1S112.6,4.1,152.4,4.1c82,0,148.8,66.8,148.8,148.9
		c0,22.9-5,44.7-15,64.9L250.7,162.7z"/>
	<g id="Lights">
		<circle class="st2" cx="95" cy="145" r="15"/>
		<circle class="st3" cx="152.5" cy="143" r="15"/>
		<circle class="st4" cx="210" cy="143" r="15"/>
	</g>
	<text id="Numbers" transform="matrix(1 0 0 1 23 124.3135)" class="st5 st6 st7">01:23:45</text>
</g>
</svg>
