<?xml version="1.0" encoding="utf-8"?>
<!-- Generator: Adobe Illustrator 23.0.1, SVG Export Plug-In . SVG Version: 6.00 Build 0)  -->
<svg version="1.1" id="Layer_1" xmlns="http://www.w3.org/2000/svg" xmlns:xlink="http://www.w3.org/1999/xlink" x="0px" y="0px"
	 viewBox="0 0 828 478" style="enable-background:new 0 0 828 478;" xml:space="preserve">
<path id="Phone" d="M209.7,121c-19.6,0-35.1,15.5-35.1,34.8v166.3c0,19.3,15.6,35,35.1,35h64.1h353.4c19.6,0,35.8-15.7,35.8-35
	V155.7c0-19.3-16.2-34.8-35.8-34.8H209.7V121z M187.6,213.9c0-1.6,1.4-2.9,3-2.9s3,1.3,3,2.9s-1.4,2.9-3,2.9
	S187.6,215.5,187.6,213.9z M189.6,250.7v-26.1c0-1.1,0.7-2,1.7-2s1.7,0.9,1.7,2v26.1c0,1.1-0.7,2-1.7,2S189.6,251.8,189.6,250.7z
	 M625.7,133.7c11.9,0,21.7,9.2,21.7,20.8V321c0,11.7-9.8,21.3-21.7,21.3H208.5c-11.8,0-21-9.6-21-21.3v-19.3c0-4.1-0.3-5.6,5-5.8
	c5.4-0.3,9-3.9,10.5-8.9c0.5-1.7,0.8-3.5,0.8-5.3v-3.6v-80.7v-3.6c0-1.8-0.4-3.7-1-5.3c-1.6-4.9-4.8-8.7-10.3-8.9
	c-5.2-0.3-5.1-1.7-5.1-5.8v-19.1c0-11.7,9.1-20.8,21-20.8h417.2v-0.2H625.7z"/>
<path id="Vibes" d="M127.6,347.9c-0.4-1-10.8-25.6-11.6-59.6c-0.5-24.5,4.7-37,9.7-49.2c4.8-11.5,9.3-22.4,9.3-45
	c0-20.9-3.6-34.5-6.6-42.3c-3.2-8.3-6.4-11.8-6.5-11.8l0.1,0.1l9.9-9.9c1.7,1.7,17.1,18.4,17.1,64c0,25.3-5.5,38.6-10.4,50.4
	c-4.7,11.3-9.1,21.9-8.6,43.5c0.7,31.3,10.3,54.2,10.4,54.4L127.6,347.9z M91.6,347.9c-0.4-1-10.8-25.6-11.6-59.6
	c-0.5-24.5,4.7-37,9.7-49.2c4.8-11.5,9.3-22.4,9.3-45c0-20.9-3.6-34.5-6.6-42.3C89.2,143.5,86,140,86,140l0.1,0.1l9.9-9.9
	c1.7,1.7,17.1,18.4,17.1,64c0,25.3-5.5,38.6-10.4,50.4c-4.7,11.3-9.1,21.9-8.6,43.5c0.7,31.3,10.3,54.2,10.4,54.4L91.6,347.9z
	 M695.6,347.9c-0.4-1-10.8-25.6-11.6-59.6c-0.5-24.5,4.7-37,9.7-49.2c4.8-11.5,9.3-22.4,9.3-45c0-20.9-3.6-34.5-6.6-42.3
	c-3.2-8.3-6.4-11.8-6.5-11.8l0.1,0.1l9.9-9.9c1.7,1.7,17.1,18.4,17.1,64c0,25.3-5.5,38.6-10.4,50.4c-4.7,11.3-9.1,21.9-8.6,43.5
	c0.7,31.3,10.3,54.2,10.4,54.4L695.6,347.9z M731.6,347.9c-0.4-1-10.8-25.6-11.6-59.6c-0.5-24.5,4.7-37,9.7-49.2
	c4.8-11.5,9.3-22.4,9.3-45c0-20.9-3.6-34.5-6.6-42.3c-3.2-8.3-6.4-11.8-6.5-11.8l0.1,0.1l9.9-9.9c1.7,1.7,17.1,18.4,17.1,64
	c0,25.3-5.5,38.6-10.4,50.4c-4.7,11.3-9.1,21.9-8.6,43.5c0.7,31.3,10.3,54.2,10.4,54.4L731.6,347.9z M763.6,347.9
	c-0.4-1-10.8-25.6-11.6-59.6c-0.5-24.5,4.7-37,9.7-49.2c4.8-11.5,9.3-22.4,9.3-45c0-20.9-3.6-34.5-6.6-42.3
	c-3.2-8.3-6.4-11.8-6.5-11.8l0.1,0.1l9.9-9.9c1.7,1.7,17.1,18.4,17.1,64c0,25.3-5.5,38.6-10.4,50.4c-4.7,11.3-9.1,21.9-8.6,43.5
	c0.7,31.3,10.3,54.2,10.4,54.4L763.6,347.9z M54.6,347.9c-0.4-1-10.8-25.6-11.6-59.6c-0.5-24.5,4.7-37,9.7-49.2
	c4.8-11.5,9.3-22.4,9.3-45c0-20.9-3.6-34.5-6.6-42.3C52.2,143.5,49,140,49,140l0.1,0.1l9.9-9.9c1.7,1.7,17.1,18.4,17.1,64
	c0,25.3-5.5,38.6-10.4,50.4c-4.7,11.3-9.1,21.9-8.6,43.5c0.7,31.3,10.3,54.2,10.4,54.4L54.6,347.9z"/>
</svg>
